<svg xmlns="http://www.w3.org/2000/svg" xmlns:xlink="http://www.w3.org/1999/xlink" width="134.418" height="44" viewBox="0 0 134.418 44">
  <defs>
    <clipPath id="clip-path">
      <rect id="Rectangle_3" data-name="Rectangle 3" width="81.418" height="36.484" fill="none"/>
    </clipPath>
    <clipPath id="clip-path-2">
      <rect id="Rectangle_7" data-name="Rectangle 7" width="32.398" height="32.759" fill="#fff"/>
    </clipPath>
  </defs>
  <g id="Group_102" data-name="Group 102" transform="translate(-286 -11)">
    <g id="Group_14" data-name="Group 14" transform="translate(339 15)">
      <g id="Group_3" data-name="Group 3" clip-path="url(#clip-path)">
        <path id="Path_6" data-name="Path 6" d="M176,80.164q0-4.1,0-8.2c0-.277.014-.555,0-.831-.027-.562.253-.78.791-.772.831.012,1.663,0,2.494,0,1.663,0,3.328-.049,4.989.018a17.542,17.542,0,0,1,3.159.406,5.721,5.721,0,0,1,4.609,4.459c.57,2.645.392,5-2.314,6.949a6.153,6.153,0,0,1-1.49.7c-.442.162-.609.318-.242.734,1.019,1.155,2.02,2.327,3.034,3.487.65.743,1.319,1.471,1.965,2.218.351.406.275.7-.221.712-1.186.04-2.376.048-3.559-.018a1.532,1.532,0,0,1-.863-.561c-1.425-1.587-2.873-3.159-4.211-4.819a2.747,2.747,0,0,0-2.491-1.217c-2.052.1-1.8-.19-1.817,1.886-.009,1.188.009,2.376-.005,3.564-.013,1.069-.116,1.173-1.138,1.2-.633.015-1.267-.01-1.9,0-.54.011-.808-.213-.79-.774s0-1.109,0-1.663q0-3.742,0-7.484m7.3-6v0h-2.734c-.4,0-.718.1-.719.583q-.006,2.378,0,4.755a.518.518,0,0,0,.591.577c1.743-.005,3.487,0,5.23-.029a2.777,2.777,0,0,0,.912-.253,2.832,2.832,0,0,0,1.778-3.364,2.722,2.722,0,0,0-2.676-2.259c-.791-.033-1.585-.006-2.377-.006" transform="translate(-134.142 -53.617)" fill="#6ebe45"/>
        <path id="Path_7" data-name="Path 7" d="M16.945,81q0,4.161,0,8.322c0,.277,0,.555-.007.832,0,.444-.245.64-.674.64-.753,0-1.506.021-2.259,0-.805-.023-.878-.087-.887-.9-.019-1.664,0-3.329-.009-4.993-.015-2.217.258-1.928-1.978-1.943-2.021-.013-4.042-.007-6.063,0-1.2,0-1.2.012-1.209,1.171-.008,1.863.006,3.725-.006,5.588-.007,1.042-.039,1.067-1.068,1.084-.674.011-1.347-.007-2.021,0-.482,0-.748-.195-.735-.7.006-.238,0-.475,0-.713q0-8.322,0-16.644c0-.238.013-.476,0-.713C0,71.453.3,71.262.833,71.274c.713.017,1.427-.014,2.14.007.8.024.869.088.878.911.019,1.7-.006,3.408.01,5.112.022,2.381-.31,2.031,2.1,2.053,1.981.018,3.963.008,5.944,0,1.192,0,1.2-.011,1.205-1.164.007-1.942-.006-3.884.006-5.825.006-1.056.031-1.071,1.058-1.091.555-.011,1.11-.01,1.664,0,1.08.018,1.1.031,1.1,1.165.009,1.07,0,2.14,0,3.21V81" transform="translate(-0.019 -54.321)" fill="#6ebe45"/>
        <path id="Path_8" data-name="Path 8" d="M280.38,79.929a10.82,10.82,0,0,1-1.919,6.613,8.61,8.61,0,0,1-5.627,3.414,10.688,10.688,0,0,1-6.257-.637A8.272,8.272,0,0,1,262,84.752a10.608,10.608,0,0,1,.081-8.852,8.925,8.925,0,0,1,6.648-5.194,10.348,10.348,0,0,1,5.031.253,8.733,8.733,0,0,1,5.806,5.194,7.949,7.949,0,0,1,.815,3.776M270.685,74a5.456,5.456,0,0,0-5.7,4.655,8.105,8.105,0,0,0,.223,4.215,7.5,7.5,0,0,0,1.176,2.03c1.62,2.058,5.526,2.2,7.437,1.072a4.916,4.916,0,0,0,1.987-1.969,7.522,7.522,0,0,0,.076-7.162,5.093,5.093,0,0,0-3.555-2.708A10.388,10.388,0,0,0,270.685,74" transform="translate(-198.985 -53.736)" fill="#6ebe45"/>
        <path id="Path_9" data-name="Path 9" d="M101.269,115.977c-2.06,0-4.12.008-6.18,0-1.04-.006-1.08-.044-1.084-1.069q-.015-4.754,0-9.508c0-1.04.034-1.072,1.073-1.074q6-.013,12,0c1.071,0,1.171.112,1.2,1.137.014.515.025,1.031-.006,1.545-.045.747-.175.888-.95.9-1.664.024-3.328.009-4.992.009-1.228,0-2.457-.015-3.684.008-.752.015-.8.069-.82.837-.023.871.01,1.743-.01,2.615-.012.548.206.8.768.786.792-.019,1.585,0,2.377,0,2.1,0,4.2,0,6.3,0,1.28,0,1.281.009,1.288,1.336,0,.515.013,1.03,0,1.545-.028.868-.07.925-.98.932-2.1.016-4.2,0-6.3.005" transform="translate(-71.644 -79.507)" fill="#6ebe45"/>
        <path id="Path_10" data-name="Path 10" d="M106.193,2.079c.886-.259,1.4.269,1.807,1.194,1.595,3.66,3.252,7.293,4.865,10.946.406.92.364.945-.673.97h-.119c-1.908-.013-1.562.146-2.289-1.426a1.417,1.417,0,0,0-1.532-.983c-1.62.066-3.245.035-4.868.012a.992.992,0,0,0-1.067.727c-.758,1.968-.626,1.644-2.712,1.664-.805.008-.84-.038-.524-.791q1.057-2.514,2.176-5,1.359-3.031,2.761-6.042c.592-1.276.606-1.27,2.173-1.269m-.144,8.084v.013c.553,0,1.108.019,1.658-.017.107-.007.31-.275.281-.344-.6-1.418-1.218-2.826-1.85-4.228-.022-.049-.295-.061-.31-.027-.613,1.368-1.22,2.738-1.788,4.125-.039.1.214.442.353.456.547.054,1.1.022,1.656.022" transform="translate(-75.377 -1.534)" fill="#4cb648"/>
        <path id="Path_11" data-name="Path 11" d="M168.2,14.012a6.769,6.769,0,0,1-4.253-1.315,3.769,3.769,0,0,1-.454-.379c-1.225-1.313-1.108-1.8.522-2.521a.739.739,0,0,1,1.082.306c1.082,1.578,3.4,1.613,4.752,1.206a1.492,1.492,0,0,0,1.238-1.4,1.379,1.379,0,0,0-1.157-1.566c-.935-.289-1.928-.384-2.882-.62a19.95,19.95,0,0,1-2.018-.657,3.113,3.113,0,0,1-1.955-3.12A3.247,3.247,0,0,1,165.124.733,7.214,7.214,0,0,1,171.75.88a2.954,2.954,0,0,1,.412.235A2.571,2.571,0,0,1,173.3,2.691a16.274,16.274,0,0,1-1.642.9.879.879,0,0,1-.723-.23c-1.076-1-2.376-.95-3.692-.85a1.553,1.553,0,0,0-.454.127,1.459,1.459,0,0,0-1.015,1.336A1.294,1.294,0,0,0,166.8,5.149c.679.191,1.4.231,2.085.406a24.572,24.572,0,0,1,3.049.9,2.8,2.8,0,0,1,1.806,2.916,7.932,7.932,0,0,1-.1,1.532,3.684,3.684,0,0,1-2.871,2.7,18.948,18.948,0,0,1-2.559.4" transform="translate(-123.987 0)" fill="#4cb648"/>
        <path id="Path_12" data-name="Path 12" d="M0,8.178c0-1.823-.011-3.646,0-5.469.008-.95.052-.962,1.025-1,1.3-.057,2.6-.209,3.9-.175a10.718,10.718,0,0,1,3.142.449c2.373.809,3.254,2.937,2.842,5.251C10.555,9.278,9.1,10.831,6.364,11c-.829.052-1.664,0-2.5.011-1.2.009-1.2.012-1.216,1.166-.007.634-.01,1.268,0,1.9.005.485-.208.693-.706.74C.118,15,0,14.906,0,13.052q0-2.437,0-4.874M2.655,6.3h0c0,.555,0,1.11,0,1.664,0,.448.22.644.658.64a26.443,26.443,0,0,0,2.731-.039,3.485,3.485,0,0,0,1.62-.614,1.973,1.973,0,0,0,.588-2.272,2.027,2.027,0,0,0-1.937-1.5c-.986-.073-1.98-.017-2.971-.034-.516-.009-.7.247-.692.731s0,.951,0,1.427" transform="translate(0 -1.163)" fill="#4cb648"/>
        <path id="Path_13" data-name="Path 13" d="M299.089,14.719c-2.687-.009-4.772-.677-6.135-2.78a7.227,7.227,0,0,1-.614-6.813c1.185-3.1,3.957-4.268,7.036-4.051a6.789,6.789,0,0,1,3.6,1.377c.688.5.67.842,0,1.405a5.065,5.065,0,0,0-.566.428c-.365.414-.676.363-1.123.073a4.439,4.439,0,0,0-3.849-.6,4.074,4.074,0,0,0-2.981,3.84,3.95,3.95,0,0,0,2.632,4.315,4.482,4.482,0,0,0,4.381-.609c.434-.334.721-.441,1.039.079a2.231,2.231,0,0,0,.323.347c1.064,1.1,1.067,1.228-.307,2a6.417,6.417,0,0,1-3.437.986" transform="translate(-222.38 -0.8)" fill="#4cb648"/>
        <path id="Path_14" data-name="Path 14" d="M101.391,70.41c2.057,0,4.115-.01,6.172,0,.955.007,1,.064,1.019,1.011.013.712,0,1.424,0,2.136a.575.575,0,0,1-.644.661c-.237,0-.475.006-.712.007H95.354c-.237,0-.475-.006-.712-.011a.529.529,0,0,1-.593-.581c0-.87-.014-1.741,0-2.611.009-.64.492-.614.934-.615q2.967,0,5.935,0h.475" transform="translate(-71.677 -53.663)" fill="#6ebe45"/>
        <path id="Path_15" data-name="Path 15" d="M55.131,8.676c0-1.82-.012-3.64.005-5.459.008-.829.086-.917.865-.922,2.23-.015,1.96-.17,1.967,1.841.009,2.413,0,4.826,0,7.239,0,1.4,0,1.4,1.457,1.406,1.345,0,2.69-.013,4.035.006.885.013.922.071.958.955.067,1.653.067,1.654-1.567,1.655q-3.086,0-6.171,0c-1.523,0-1.549-.027-1.553-1.5,0-1.741,0-3.481,0-5.222" transform="translate(-42.016 -1.742)" fill="#4cb648"/>
        <path id="Path_16" data-name="Path 16" d="M221.63,2.279c1.424,0,2.848-.007,4.271,0,1.157.008,1.169.029,1.166,1.22,0,.039,0,.079,0,.118-.02,1.017-.046,1.049-1.086,1.066-.712.012-1.424-.014-2.135.01-.755.025-.816.07-.823.83-.019,2.136-.007,4.271-.008,6.407,0,.909-.009,1.819,0,2.729,0,.489-.219.686-.711.733-1.823.171-1.933.084-1.933-1.768,0-2.571,0-5.141,0-7.712,0-1.215-.01-1.217-1.263-1.224-.633,0-1.266.013-1.9,0-.95-.028-1.058-.151-1.084-1.133,0-.079,0-.158,0-.237.018-.951.068-1.021,1-1.03,1.5-.015,3.006,0,4.509,0" transform="translate(-164.721 -1.735)" fill="#4cb648"/>
        <path id="Path_17" data-name="Path 17" d="M270.1,8.858c0-1.82-.008-3.64,0-5.459.007-1.06.041-1.1,1.044-1.105,1.98-.008,1.79-.145,1.793,1.783q.007,4.925,0,9.851c0,1.421-.064,1.477-1.461,1.472-1.313-.005-1.372-.061-1.377-1.437-.006-1.7,0-3.4,0-5.1" transform="translate(-205.867 -1.744)" fill="#4cb648"/>
      </g>
    </g>
    <g id="Group_16" data-name="Group 16" transform="translate(-1023 -198.77)">
      <rect id="Rectangle_8" data-name="Rectangle 8" width="44" height="44" rx="22" transform="translate(1309 209.77)" fill="#83c760"/>
      <g id="Group_7" data-name="Group 7" transform="translate(1316.373 217.022)">
        <g id="Group_6" data-name="Group 6" transform="translate(0 0)" clip-path="url(#clip-path-2)">
          <path id="Path_18" data-name="Path 18" d="M27.028,34.835,24.78,32.971a13.224,13.224,0,0,0,5.416-9.73c4.848,2.925,6.109,11.182,2.419,15.735l-2.063-1.6c-1.478,1.409-2.887,2.826-4.377,4.151-1.385,1.23-2.806,2.431-4.3,3.52a4.384,4.384,0,0,1-6.841-1.75c-.712-1.475-1.365-2.978-2.141-4.681,5.667,1.891,10.338.78,14.137-3.781" transform="translate(-7.362 -13.273)" fill="#fff"/>
          <path id="Path_19" data-name="Path 19" d="M0,19.682l2.495-1.074c-.68-2.8-1.37-5.509-1.981-8.231A25.414,25.414,0,0,1,.042,6.985,4.263,4.263,0,0,1,4.1,2.252c1.9-.046,3.816.237,6.01.395-4.431,4.041-5.855,8.621-3.7,14.194l2.7-1.038a13.268,13.268,0,0,0,5.829,9.515C9.732,28.01,2.581,25.3,0,19.682" transform="translate(0 -1.283)" fill="#fff"/>
          <path id="Path_20" data-name="Path 20" d="M37.393,17.209c-1.277-5.792-4.6-9.234-10.484-10.2-.163.941-.32,1.845-.5,2.876a13.183,13.183,0,0,0-11.056.373C15.113,4.78,22-.945,27.524.131l-.28,2.681c2.311.606,4.607,1.147,6.864,1.819a37.755,37.755,0,0,1,4.311,1.62,4.384,4.384,0,0,1,1.995,6.525c-.928,1.454-1.94,2.853-3.021,4.433" transform="translate(-8.765 0)" fill="#fff"/>
          <path id="Path_21" data-name="Path 21" d="M28.1,35.618c-3.875-2.312-6.028-8.021-4.789-12.346,4.034-.748,7.587.459,10.987,2.775-1.272,3.379-3.258,6.06-6.708,7.463a25.011,25.011,0,0,0,2.144-1.816,16.367,16.367,0,0,0,1.9-2.41c.53-.819.914-1.732,1.42-2.717a13.516,13.516,0,0,0-8.349-2.235c-.213.016-.526.609-.546.949a12.674,12.674,0,0,0,3.585,9.925c.126.131.239.275.358.412" transform="translate(-13.114 -13.165)" fill="#fff"/>
        </g>
      </g>
    </g>
  </g>
</svg>
